<svg width="35" height="30" viewBox="0 0 35 30" fill="none" xmlns="http://www.w3.org/2000/svg">
<path fill-rule="evenodd" clip-rule="evenodd" d="M30.1429 8.89286C30.1429 8.53782 29.855 8.25 29.5 8.25C29.145 8.25 28.8571 8.53782 28.8571 8.89286V12.1071L25.6429 12.1071C25.2878 12.1071 25 12.395 25 12.75C25 13.105 25.2878 13.3929 25.6429 13.3929L28.8571 13.3929V16.6071C28.8571 16.9622 29.145 17.25 29.5 17.25C29.855 17.25 30.1429 16.9622 30.1429 16.6071V13.3929L33.3571 13.3929C33.7122 13.3929 34 13.105 34 12.75C34 12.395 33.7122 12.1071 33.3571 12.1071L30.1429 12.1071V8.89286Z" fill="black"/>
<path d="M28.8571 12.1071V12.2071H28.9571V12.1071H28.8571ZM25.6429 12.1071V12.0071V12.1071ZM25.6429 13.3929V13.2929V13.3929ZM28.8571 13.3929H28.9571V13.2929H28.8571V13.3929ZM30.1429 13.3929V13.2929H30.0429V13.3929H30.1429ZM33.3571 13.3929V13.4929V13.3929ZM33.3571 12.1071V12.2071V12.1071ZM30.1429 12.1071H30.0429V12.2071H30.1429V12.1071ZM29.5 8.35C29.7998 8.35 30.0429 8.59305 30.0429 8.89286H30.2429C30.2429 8.48259 29.9103 8.15 29.5 8.15V8.35ZM28.9571 8.89286C28.9571 8.59305 29.2002 8.35 29.5 8.35V8.15C29.0897 8.15 28.7571 8.48259 28.7571 8.89286H28.9571ZM28.9571 12.1071V8.89286H28.7571V12.1071H28.9571ZM25.6429 12.2071L28.8571 12.2071V12.0071L25.6429 12.0071V12.2071ZM25.1 12.75C25.1 12.4502 25.343 12.2071 25.6429 12.2071V12.0071C25.2326 12.0071 24.9 12.3397 24.9 12.75H25.1ZM25.6429 13.2929C25.343 13.2929 25.1 13.0498 25.1 12.75H24.9C24.9 13.1603 25.2326 13.4929 25.6429 13.4929V13.2929ZM28.8571 13.2929L25.6429 13.2929V13.4929L28.8571 13.4929V13.2929ZM28.9571 16.6071V13.3929H28.7571V16.6071H28.9571ZM29.5 17.15C29.2002 17.15 28.9571 16.907 28.9571 16.6071H28.7571C28.7571 17.0174 29.0897 17.35 29.5 17.35V17.15ZM30.0429 16.6071C30.0429 16.907 29.7998 17.15 29.5 17.15V17.35C29.9103 17.35 30.2429 17.0174 30.2429 16.6071H30.0429ZM30.0429 13.3929V16.6071H30.2429V13.3929H30.0429ZM33.3571 13.2929L30.1429 13.2929V13.4929L33.3571 13.4929V13.2929ZM33.9 12.75C33.9 13.0498 33.657 13.2929 33.3571 13.2929V13.4929C33.7674 13.4929 34.1 13.1603 34.1 12.75H33.9ZM33.3571 12.2071C33.657 12.2071 33.9 12.4502 33.9 12.75H34.1C34.1 12.3397 33.7674 12.0071 33.3571 12.0071V12.2071ZM30.1429 12.2071L33.3571 12.2071V12.0071L30.1429 12.0071V12.2071ZM30.0429 8.89286V12.1071H30.2429V8.89286H30.0429Z" fill="black"/>
<path fill-rule="evenodd" clip-rule="evenodd" d="M19.8069 19.2819C17.0379 17.755 13.5459 17.5654 11.1684 17.8719L11.1448 17.875H11.121C6.92502 17.875 4.53068 19.6821 3.20993 21.9107C1.87295 24.1667 1.61613 26.8927 1.79709 28.7127L1.05503 28.7873C0.863117 26.8573 1.12832 23.9583 2.56931 21.5268C4.02393 19.0723 6.65669 17.1319 11.0972 17.125C13.5669 16.8108 17.2202 17.0002 20.1655 18.6243C21.6497 19.4428 22.959 20.6287 23.8362 22.2995C24.7133 23.97 25.1449 26.0991 24.9162 28.782L24.1732 28.718C24.392 26.1508 23.9753 24.1706 23.1767 22.6497C22.3783 21.129 21.1846 20.0416 19.8069 19.2819Z" stroke="black"/>
<path fill-rule="evenodd" clip-rule="evenodd" d="M13.3051 13.75C16.6001 13.75 19.2712 11.0637 19.2712 7.75C19.2712 4.43629 16.6001 1.75 13.3051 1.75C10.0101 1.75 7.33902 4.43629 7.33902 7.75C7.33902 11.0637 10.0101 13.75 13.3051 13.75ZM13.3051 14.5C17.012 14.5 20.017 11.4779 20.017 7.75C20.017 4.02208 17.012 1 13.3051 1C9.59827 1 6.59326 4.02208 6.59326 7.75C6.59326 11.4779 9.59827 14.5 13.3051 14.5Z" stroke="black"/>
</svg>
