<svg width="30" height="33" viewBox="0 0 30 33" fill="none" xmlns="http://www.w3.org/2000/svg">
<path fill-rule="evenodd" clip-rule="evenodd" d="M2.67578 9.81081L3.79211 28.8022C3.93067 31.1594 5.88264 33 8.24389 33H21.56C23.955 33 25.9223 31.1083 26.0161 28.7152L26.7569 9.81081H2.67578ZM4.5675 11.5946L5.57282 28.6976C5.65596 30.1119 6.82714 31.2162 8.24389 31.2162H21.56C22.997 31.2162 24.1774 30.0812 24.2336 28.6453L24.9018 11.5946H4.5675Z" fill="#3737EC"/>
<path fill-rule="evenodd" clip-rule="evenodd" d="M-7.79717e-08 8.02702C-3.49091e-08 7.53445 0.399314 7.13513 0.891892 7.13513L28.5405 7.13513C29.0331 7.13513 29.4324 7.53445 29.4324 8.02703C29.4324 8.5196 29.0331 8.91892 28.5405 8.91892L0.891892 8.91892C0.399313 8.91892 -1.21034e-07 8.5196 -7.79717e-08 8.02702Z" fill="#3737EC"/>
<path fill-rule="evenodd" clip-rule="evenodd" d="M22.2974 1.78378H7.13524C5.65751 1.78378 4.45957 2.98172 4.45957 4.45946H24.9731C24.9731 2.98172 23.7751 1.78378 22.2974 1.78378ZM7.13524 0C4.67235 0 2.67578 1.99657 2.67578 4.45946V6.24324H26.7569V4.45946C26.7569 1.99657 24.7603 0 22.2974 0H7.13524Z" fill="#3737EC"/>
</svg>
