<svg width="33" height="33" viewBox="0 0 33 33" fill="none" xmlns="http://www.w3.org/2000/svg">
<path fill-rule="evenodd" clip-rule="evenodd" d="M16.5 31C24.5081 31 31 24.5081 31 16.5C31 8.49187 24.5081 2 16.5 2C8.49187 2 2 8.49187 2 16.5C2 24.5081 8.49187 31 16.5 31ZM16.5 33C25.6127 33 33 25.6127 33 16.5C33 7.3873 25.6127 0 16.5 0C7.3873 0 0 7.3873 0 16.5C0 25.6127 7.3873 33 16.5 33Z" fill="#989898"/>
<path fill-rule="evenodd" clip-rule="evenodd" d="M12.7071 11.2929C12.3166 10.9024 11.6834 10.9024 11.2929 11.2929C10.9024 11.6834 10.9024 12.3166 11.2929 12.7071L15.4143 16.8285L11.2929 20.9498C10.9024 21.3404 10.9024 21.9735 11.2929 22.3641C11.6834 22.7546 12.3166 22.7546 12.7071 22.3641L16.8285 18.2427L20.9498 22.364C21.3404 22.7546 21.9735 22.7546 22.364 22.364C22.7546 21.9735 22.7546 21.3404 22.364 20.9498L18.2427 16.8285L22.364 12.7071C22.7546 12.3166 22.7546 11.6834 22.364 11.2929C21.9735 10.9024 21.3404 10.9024 20.9498 11.2929L16.8285 15.4143L12.7071 11.2929Z" fill="#989898"/>
</svg>
