<svg width="27" height="33" viewBox="0 0 27 33" fill="none" xmlns="http://www.w3.org/2000/svg">
<path fill-rule="evenodd" clip-rule="evenodd" d="M0 2.60526C0 1.16642 1.16642 0 2.60526 0H16.6344L26.9211 10.9454V30.3947C26.9211 31.8336 25.7546 33 24.3158 33H2.60526C1.16642 33 0 31.8336 0 30.3947V2.60526ZM2.60526 1.73684C2.12565 1.73684 1.73684 2.12565 1.73684 2.60526V30.3947C1.73684 30.8744 2.12565 31.2632 2.60526 31.2632H24.3158C24.7954 31.2632 25.1842 30.8744 25.1842 30.3947V12.1579H17.9956C16.5568 12.1579 15.3904 10.9915 15.3904 9.55263V1.73684H2.60526ZM17.1272 3.06052L24.0447 10.4211H17.9956C17.516 10.4211 17.1272 10.0322 17.1272 9.55263V3.06052Z" fill="#3737EC"/>
<path fill-rule="evenodd" clip-rule="evenodd" d="M20.0352 21.1401L14.5086 26.6667C14.1695 27.0058 13.6196 27.0058 13.2805 26.6667L7.75387 21.1401C7.41473 20.801 7.41473 20.2511 7.75387 19.912C8.09301 19.5728 8.64286 19.5728 8.982 19.912L13.0261 23.9561L13.0261 13.0263C13.0261 12.5467 13.4149 12.1579 13.8945 12.1579C14.3741 12.1579 14.763 12.5467 14.763 13.0263L14.763 23.9561L18.8071 19.912C19.1462 19.5728 19.6961 19.5728 20.0352 19.912C20.3743 20.2511 20.3743 20.801 20.0352 21.1401Z" fill="#3737EC"/>
</svg>
