<svg width="35" height="35" viewBox="0 0 35 35" fill="none" xmlns="http://www.w3.org/2000/svg">
<path fill-rule="evenodd" clip-rule="evenodd" d="M26.9713 3.13945C26.5829 2.74268 25.9457 2.73819 25.5519 3.12946L2.29525 26.2316C2.10627 26.4193 2 26.6747 2 26.941V33H9.26951C9.54348 33 9.80546 32.8876 9.99423 32.689L31.9459 9.60047C32.3168 9.21036 32.3124 8.59666 31.9359 8.21197L26.9713 3.13945ZM24.1424 1.71054C25.324 0.536745 27.2356 0.550202 28.4006 1.74052L33.3652 6.81304C34.4947 7.96712 34.5081 9.80823 33.3954 10.9785L11.4437 34.0671C10.8773 34.6628 10.0914 35 9.26951 35H2C0.895432 35 0 34.1046 0 33V26.941C0 26.1419 0.318822 25.3758 0.88576 24.8127L24.1424 1.71054Z" fill="#3737EC"/>
</svg>
