<svg width="33" height="33" viewBox="0 0 33 33" fill="none" xmlns="http://www.w3.org/2000/svg">
<path fill-rule="evenodd" clip-rule="evenodd" d="M17.8532 0.579578C17.1125 -0.193189 15.8876 -0.193196 15.1469 0.579577L0.266282 16.1044C-0.0963909 16.4828 -0.0874817 17.0872 0.286181 17.4544C0.659844 17.8217 1.25676 17.8127 1.61943 17.4343L3.77151 15.189V30.1358C3.77151 31.7176 5.03791 33 6.60008 33H26.4001C27.9623 33 29.2287 31.7176 29.2287 30.1358V15.1892L31.3806 17.4343C31.7432 17.8127 32.3402 17.8217 32.7138 17.4544C33.0875 17.0872 33.0964 16.4828 32.7337 16.1044L17.8532 0.579578ZM27.3429 13.2219L16.5 1.90949L5.65723 13.2217V30.1358C5.65723 30.6631 6.07936 31.0905 6.60008 31.0905H26.4001C26.9208 31.0905 27.3429 30.6631 27.3429 30.1358V13.2219Z" fill="white"/>
</svg>
