<svg width="33" height="33" viewBox="0 0 33 33" fill="#ffffff" xmlns="http://www.w3.org/2000/svg">
<path d="M6 3C6 4.65685 4.65685 6 3 6C1.34315 6 0 4.65685 0 3C0 1.34315 1.34315 0 3 0C4.65685 0 6 1.34315 6 3Z" fill="#ffffff"/>
<path d="M33 3C33 4.65685 31.6569 6 30 6C28.3431 6 27 4.65685 27 3C27 1.34315 28.3431 0 30 0C31.6569 0 33 1.34315 33 3Z" fill="#ffffff"/>
<path d="M20 3C20 4.65685 18.6569 6 17 6C15.3431 6 14 4.65685 14 3C14 1.34315 15.3431 0 17 0C18.6569 0 20 1.34315 20 3Z" fill="#ffffff"/>
<path d="M6 17C6 18.6569 4.65685 20 3 20C1.34315 20 0 18.6569 0 17C0 15.3431 1.34315 14 3 14C4.65685 14 6 15.3431 6 17Z" fill="#ffffff"/>
<path d="M33 17C33 18.6569 31.6569 20 30 20C28.3431 20 27 18.6569 27 17C27 15.3431 28.3431 14 30 14C31.6569 14 33 15.3431 33 17Z" fill="#ffffff"/>
<path d="M20 17C20 18.6569 18.6569 20 17 20C15.3431 20 14 18.6569 14 17C14 15.3431 15.3431 14 17 14C18.6569 14 20 15.3431 20 17Z" fill="#ffffff"/>
<path d="M6 30C6 31.6569 4.65685 33 3 33C1.34315 33 0 31.6569 0 30C0 28.3431 1.34315 27 3 27C4.65685 27 6 28.3431 6 30Z" fill="#ffffff"/>
<path d="M33 30C33 31.6569 31.6569 33 30 33C28.3431 33 27 31.6569 27 30C27 28.3431 28.3431 27 30 27C31.6569 27 33 28.3431 33 30Z" fill="#ffffff"/>
<path d="M20 30C20 31.6569 18.6569 33 17 33C15.3431 33 14 31.6569 14 30C14 28.3431 15.3431 27 17 27C18.6569 27 20 28.3431 20 30Z" fill="#ffffff"/>
</svg>
