<svg width="33" height="34" viewBox="0 0 33 34" fill="none" xmlns="http://www.w3.org/2000/svg">
<path d="M9 11C9 6.05065 9.95789 3.97064 11.1203 3.02606C11.7057 2.55028 12.4328 2.28455 13.3433 2.14465C14.2704 2.00221 15.3078 2 16.5 2C17.6922 2 18.7296 2.00221 19.6567 2.14465C20.5672 2.28455 21.2943 2.55028 21.8797 3.02606C23.0421 3.97064 24 6.05065 24 11H26C26 5.94935 25.0551 3.02936 23.1411 1.47394C22.1883 0.699719 21.0838 0.340453 19.9605 0.167851C18.8677 -5.46575e-05 17.6853 -2.61616e-05 16.5438 6.79463e-07H16.4562C15.3147 -2.61619e-05 14.1323 -5.3972e-05 13.0395 0.167851C11.9162 0.340453 10.8117 0.699719 9.85893 1.47394C7.9449 3.02936 7 5.94935 7 11H9Z" fill="black"/>
<path fill-rule="evenodd" clip-rule="evenodd" d="M0 14C0 12.3431 1.34315 11 3 11H30C31.6569 11 33 12.3431 33 14V31C33 32.6569 31.6569 34 30 34H3C1.34314 34 0 32.6569 0 31V14ZM2 14C2 13.4477 2.44772 13 3 13H30C30.5523 13 31 13.4477 31 14V31C31 31.5523 30.5523 32 30 32H3C2.44772 32 2 31.5523 2 31V14Z" fill="#3737EC"/>
</svg>
